<svg width="1440" height="770" viewBox="0 0 1440 770" fill="none" xmlns="http://www.w3.org/2000/svg">
<mask id="mask0_452_1719" style="mask-type:alpha" maskUnits="userSpaceOnUse" x="0" y="0" width="1440" height="928">
<path d="M1.10663e-05 4.38633e-05L0 928L1440 928L1440 36.0048L1440 6.10352e-05L1.10663e-05 4.38633e-05Z" fill="#FFCF33"/>
</mask>
<g mask="url(#mask0_452_1719)">
<g filter="url(#filter0_f_452_1719)">
<path fill-rule="evenodd" clip-rule="evenodd" d="M1028.99 220.19C1032.4 181.768 1079.84 168.173 1106.34 140.142C1134.39 110.471 1145.99 59.5766 1186.39 53.6833C1228.43 47.552 1269.48 77.9596 1293.78 112.801C1315.14 143.424 1311.87 184.041 1302.53 220.19C1295.38 247.854 1270.91 264.356 1249.69 283.486C1230.22 301.033 1212.07 319.654 1186.39 324.878C1153.78 331.513 1118.48 334.247 1090.77 315.814C1057.92 293.967 1025.51 259.485 1028.99 220.19Z" fill="url(#paint0_linear_452_1719)">
<animateTransform attributeName="transform" type="scale" values="1;1.1;1" keyTimes="0;0.5;1" dur="4s" repeatCount="indefinite"/>
</path>
</g>
<g filter="url(#filter1_f_452_1719)">
<path fill-rule="evenodd" clip-rule="evenodd" d="M1232.93 476.921C1235.52 398.179 1327.36 369.809 1402.8 347.35C1470.02 327.337 1550.23 313.514 1591.73 370.098C1633.65 427.234 1600.87 502.777 1558.46 559.547C1518.33 613.271 1458.27 652.212 1393.31 635.725C1312.73 615.271 1230.19 560.096 1232.93 476.921Z" fill="url(#paint1_linear_452_1719)">
<animateTransform attributeName="transform" type="translate" values="0,0;30,20;0,0" keyTimes="0;0.4;1" dur="4s" repeatCount="indefinite"/>
</path>
</g>
<g filter="url(#filter2_f_452_1719)">
<path fill-rule="evenodd" clip-rule="evenodd" d="M1065.41 574.05C1062.05 549.681 1049.23 526.346 1055.17 502.473C1062.16 474.341 1073.13 438.418 1101.07 430.69C1130.18 422.64 1151.69 468.345 1181.87 467.429C1223.27 466.174 1263.61 398.82 1295.88 424.781C1327.51 450.231 1272.38 501.722 1274.86 542.245C1276.53 569.475 1320.06 591.211 1307.56 615.458C1293.98 641.793 1248.75 624.009 1224.17 640.555C1204.37 653.883 1203.76 684.376 1184.41 698.356C1157.16 718.05 1121.91 752.34 1092.82 735.475C1062.39 717.836 1079.22 668.629 1073.33 633.955C1069.89 613.687 1068.23 594.415 1065.41 574.05Z" fill="url(#paint2_linear_452_1719)">
<animateTransform attributeName="transform" type="translate" values="0,0;30,20;0,0" keyTimes="0;0.4;1" dur="4s" repeatCount="indefinite"/>

</path>
</g>
<g filter="url(#filter3_f_452_1719)">
<path fill-rule="evenodd" clip-rule="evenodd" d="M1239.96 138.176C1241.92 108.132 1198.34 73.2455 1219.71 52.0267C1243.6 28.3165 1284.73 62.5836 1318.33 60.3923C1336.16 59.2291 1350.95 48.7042 1367.67 42.3774C1403.13 28.951 1436.35 -11.416 1471.69 2.3347C1502.54 14.3382 1491.17 63.4677 1502.11 94.6881C1513.82 128.098 1545.36 157.587 1538.26 192.268C1531.13 227.04 1498.02 251.603 1466.58 268.133C1438.56 282.87 1403.15 291.16 1374.09 278.591C1346.33 266.589 1351.99 214.182 1322.88 205.99C1284.32 195.137 1239 257.21 1207.99 231.853C1181.91 210.525 1237.77 171.778 1239.96 138.176Z" fill="url(#paint3_linear_452_1719)">
<animateTransform attributeName="transform" type="translate" values="0,0;30,20;0,0" keyTimes="0;0.4;1" dur="4s" repeatCount="indefinite"/>
</path>
</g>
<g filter="url(#filter4_f_452_1719)">
<path fill-rule="evenodd" clip-rule="evenodd" d="M1009.1 365.23C1001.88 335.479 1031.54 307.224 1055.44 288.1C1076.2 271.482 1104.76 272.605 1130.91 267.757C1150.76 264.076 1169.91 264.31 1190.07 263.135C1216.11 261.617 1241.31 253.742 1266.67 259.845C1305.18 269.111 1350.28 274.738 1373.05 307.165C1396.45 340.489 1400.96 389.553 1383.62 426.399C1366.5 462.79 1318.73 469.635 1285.76 492.659C1257.06 512.711 1237.22 549.533 1202.38 552.994C1167.68 556.441 1132.14 536.498 1109.23 510.196C1088.84 486.804 1105.47 447.06 1087.84 421.529C1069.12 394.428 1016.88 397.239 1009.1 365.23Z" fill="url(#paint4_linear_452_1719)" fill-opacity="0.9">
 <animateTransform attributeName="transform" type="translate" values="0,0;300,100;0,-30;0,0" keyTimes="0;0.4;0.7;1" dur="8s" repeatCount="indefinite"/>
 </path>
</g>
<g filter="url(#filter5_f_452_1719)">
<path fill-rule="evenodd" clip-rule="evenodd" d="M1041.48 729.022C1068.65 686.917 1153.96 728.854 1182.99 688.012C1209.78 650.338 1142.01 592.386 1166.49 553.177C1185.88 522.129 1244.08 521.23 1273.62 542.857C1306.54 566.961 1288.62 622.044 1308.9 657.441C1319.82 676.499 1345.25 680.25 1361.06 695.503C1390.98 724.372 1466.16 752.199 1442.65 786.484C1414.78 827.117 1346.75 782.195 1297.77 787.77C1282.8 789.475 1272.62 803.375 1258.13 807.491C1241.75 812.144 1225.3 811.054 1208.4 813.156C1168.98 818.061 1128.07 845.965 1092.61 828.088C1058.73 811.011 1020.92 760.892 1041.48 729.022Z" fill="url(#paint5_linear_452_1719)">
<animateTransform attributeName="transform" type="translate" values="0,0;30,20;0,0" keyTimes="0;0.4;1" dur="4s" repeatCount="indefinite"/>
</path>
</g>
<g filter="url(#filter6_f_452_1719)">
<path fill-rule="evenodd" clip-rule="evenodd" d="M1282.24 628.027C1277.03 590.778 1310.95 553.884 1344.35 536.544C1375.56 520.34 1414.85 555.07 1447.58 542.194C1477.27 530.513 1478.83 481.057 1509.31 471.645C1540.58 461.991 1587.82 465.199 1602.8 494.273C1620.05 527.753 1581.82 564.496 1576.35 601.755C1573.71 619.751 1576.09 637.218 1579.21 655.137C1585.71 692.527 1629.34 735.039 1604.53 763.776C1581.58 790.365 1537.96 736.907 1503.35 743.011C1466.71 749.473 1444.79 808.447 1409 798.262C1375.46 788.712 1388.65 732.398 1367.83 704.433C1344.52 673.131 1287.64 666.668 1282.24 628.027Z" fill="url(#paint6_linear_452_1719)" fill-opacity="0.9">
<animateTransform attributeName="transform" type="translate" values="0,0;30,20;0,0" keyTimes="0;0.4;1" dur="4s" repeatCount="indefinite"/>
</path>
</g>
<g filter="url(#filter7_f_452_1719)">
<path fill-rule="evenodd" clip-rule="evenodd" d="M1347.56 284.825C1356.63 255.913 1408.38 266.79 1425.55 241.825C1441.77 218.258 1412.09 175.826 1434.65 158.237C1454.98 142.392 1482.38 173.855 1507.87 177.649C1533.18 181.415 1567.18 160.232 1583.02 180.319C1600.13 202.018 1562.83 235.55 1573.61 260.999C1586.91 292.428 1640.15 296.471 1646.4 330.025C1652.14 360.888 1625.92 390.932 1601.46 410.61C1577.35 430.001 1542.9 447.996 1514.25 436.341C1483.23 423.725 1488.41 372.871 1461.09 353.517C1441.81 339.855 1411.96 361.791 1391.74 349.557C1368.92 335.754 1339.57 310.266 1347.56 284.825Z" fill="url(#paint7_linear_452_1719)">
<animateTransform attributeName="transform" type="translate" values="0,0;30,20;0,0" keyTimes="0;0.4;1" dur="4s" repeatCount="indefinite"/>
</path>
</g>
</g>
<defs>
<filter id="filter0_f_452_1719" x="820.734" y="-155.108" width="697.026" height="693.01" filterUnits="userSpaceOnUse" color-interpolation-filters="sRGB">
<feFlood flood-opacity="0" result="BackgroundImageFix"/>
<feBlend mode="normal" in="SourceGraphic" in2="BackgroundImageFix" result="shape"/>
<feGaussianBlur stdDeviation="104" result="effect1_foregroundBlur_452_1719"/>
</filter>
<filter id="filter1_f_452_1719" x="1204.86" y="301.901" width="434.304" height="365.647" filterUnits="userSpaceOnUse" color-interpolation-filters="sRGB">
<feFlood flood-opacity="0" result="BackgroundImageFix"/>
<feBlend mode="normal" in="SourceGraphic" in2="BackgroundImageFix" result="shape"/>
<feGaussianBlur stdDeviation="14" result="effect1_foregroundBlur_452_1719"/>
</filter>
<filter id="filter2_f_452_1719" x="1003.62" y="368.833" width="356.197" height="421.167" filterUnits="userSpaceOnUse" color-interpolation-filters="sRGB">
<feFlood flood-opacity="0" result="BackgroundImageFix"/>
<feBlend mode="normal" in="SourceGraphic" in2="BackgroundImageFix" result="shape"/>
<feGaussianBlur stdDeviation="25" result="effect1_foregroundBlur_452_1719"/>
</filter>
<filter id="filter3_f_452_1719" x="1135.07" y="-66.4815" width="470.216" height="417.226" filterUnits="userSpaceOnUse" color-interpolation-filters="sRGB">
<feFlood flood-opacity="0" result="BackgroundImageFix"/>
<feBlend mode="normal" in="SourceGraphic" in2="BackgroundImageFix" result="shape"/>
<feGaussianBlur stdDeviation="33" result="effect1_foregroundBlur_452_1719"/>
</filter>
<filter id="filter4_f_452_1719" x="922" y="171.558" width="558.138" height="467.824" filterUnits="userSpaceOnUse" color-interpolation-filters="sRGB">
<feFlood flood-opacity="0" result="BackgroundImageFix"/>
<feBlend mode="normal" in="SourceGraphic" in2="BackgroundImageFix" result="shape"/>
<feGaussianBlur stdDeviation="43" result="effect1_foregroundBlur_452_1719"/>
</filter>
<filter id="filter5_f_452_1719" x="969.648" y="462.039" width="543.481" height="437.961" filterUnits="userSpaceOnUse" color-interpolation-filters="sRGB">
<feFlood flood-opacity="0" result="BackgroundImageFix"/>
<feBlend mode="normal" in="SourceGraphic" in2="BackgroundImageFix" result="shape"/>
<feGaussianBlur stdDeviation="33" result="effect1_foregroundBlur_452_1719"/>
</filter>
<filter id="filter6_f_452_1719" x="1185.71" y="370.754" width="522.383" height="524.687" filterUnits="userSpaceOnUse" color-interpolation-filters="sRGB">
<feFlood flood-opacity="0" result="BackgroundImageFix"/>
<feBlend mode="normal" in="SourceGraphic" in2="BackgroundImageFix" result="shape"/>
<feGaussianBlur stdDeviation="48" result="effect1_foregroundBlur_452_1719"/>
</filter>
<filter id="filter7_f_452_1719" x="1234.21" y="41.8071" width="524.985" height="510.222" filterUnits="userSpaceOnUse" color-interpolation-filters="sRGB">
<feFlood flood-opacity="0" result="BackgroundImageFix"/>
<feBlend mode="normal" in="SourceGraphic" in2="BackgroundImageFix" result="shape"/>
<feGaussianBlur stdDeviation="56" result="effect1_foregroundBlur_452_1719"/>
</filter>
<linearGradient id="paint0_linear_452_1719" x1="1028.73" y1="329.901" x2="1305.72" y2="48.9047" gradientUnits="userSpaceOnUse">
<stop stop-color="#FFF6B7"/>
<stop offset="1" stop-color="#F6416C"/>
</linearGradient>
<linearGradient id="paint1_linear_452_1719" x1="1232.86" y1="639.549" x2="1536.4" y2="268.706" gradientUnits="userSpaceOnUse">
<stop stop-color="#81FFEF"/>
<stop offset="1" stop-color="#F067B4"/>
</linearGradient>
<linearGradient id="paint2_linear_452_1719" x1="1053.62" y1="740" x2="1366.75" y2="490.211" gradientUnits="userSpaceOnUse">
<stop stop-color="#ABDCFF"/>
<stop offset="1" stop-color="#0396FF"/>
</linearGradient>
<linearGradient id="paint3_linear_452_1719" x1="1201.07" y1="284.744" x2="1482.2" y2="-48.62" gradientUnits="userSpaceOnUse">
<stop stop-color="#FFA8A8"/>
<stop offset="1" stop-color="#FCFF00"/>
</linearGradient>
<linearGradient id="paint4_linear_452_1719" x1="1008" y1="553.382" x2="1293.63" y2="180.555" gradientUnits="userSpaceOnUse">
<stop stop-color="#F6D242"/>
<stop offset="1" stop-color="#FF52E5"/>
</linearGradient>
<linearGradient id="paint5_linear_452_1719" x1="1035.65" y1="834" x2="1328.65" y2="439.944" gradientUnits="userSpaceOnUse">
<stop stop-color="#3C8CE7"/>
<stop offset="1" stop-color="#00EAFF"/>
</linearGradient>
<linearGradient id="paint6_linear_452_1719" x1="1281.71" y1="799.441" x2="1614.39" y2="469.066" gradientUnits="userSpaceOnUse">
<stop stop-color="#EE9AE5"/>
<stop offset="1" stop-color="#5961F9"/>
</linearGradient>
<linearGradient id="paint7_linear_452_1719" x1="1346.21" y1="440.029" x2="1632.07" y2="139.424" gradientUnits="userSpaceOnUse">
<stop stop-color="#FF96F9"/>
<stop offset="1" stop-color="#C32BAC"/>
</linearGradient>
</defs>
</svg>
